<?xml version="1.0" encoding="utf-8"?>	 
<svg
version="1.1"
viewBox="0 0 500 500" 
xmlns="http://www.w3.org/2000/svg"
xmlns:xlink="http://www.w3.org/1999/xlink"> 
<style>
    /* <![CDATA[ */
   svg {
      width:80%;
      height:80%;
      background-color: orange;
    }
    /* ]]> */
  </style>


<defs>
 <circle id="Circ1" cx="250" cy="250" r="180"  stroke="black" stroke-width="4" fill="gold" />
 <circle id="Circ24"  cx="250" cy="250" r="150" stroke="black" stroke-width="3"  fill="url(#gradient_3D)" />
 <circle id="Circ24B" cx="250" cy="250" r="130" stroke="black" stroke-width="3"  fill="url(#gradient_3D_red)" />

 <circle id="Zvire"  cx="250" cy="215" r="90" stroke="black" stroke-width="1"  fill="url(#gradient_3D)" />
 <circle id="ZvireB" cx="250" cy="215" r="58" stroke="black" stroke-width="1"  fill="url(#gradient_3D_red)" />


 <polygon id="bt" points="250, 100 240, 50 260, 50"
 style="fill:url(#gradient_3D); stroke:blue;stroke-width:1"/> 


 <path id="stopa1"  transform = "scale(3 3) "
       style="fill:red;stroke:green;stroke-width:1px;stroke-linecap:butt;stroke-linejoin:miter;stroke-opacity:1"
       d="m 0, 0 c 2.8289,-4.466373 7.789289,-19.808255 14.222847,-12.242527
       3.549496,4.174132 -4.910865,7.691042 -6.397775,8.355866 -2.059226,0.920716 -1.901126,5.16011
       -3.938411,6.178753 -1.811479,0.905739 -4.552004,0.03661 -3.886661,-2.292092 z"
        />
 
</defs>
<defs>
 <radialGradient id="gradient_3D" cx="20%" cy="20%" r="100%" fx="30%" fy="30%">
   <stop stop-color="white" offset="0"/>
   <stop stop-color="#666" offset="50%"/>
   <stop stop-color="black" offset="100%"/>
 </radialGradient>
 <radialGradient id="gradient_3D_red" cx="20%" cy="20%" r="100%" fx="30%" fy="30%">
   <stop stop-color="white" offset="0"/>
   <stop stop-color="red" offset="25%"/>
   <stop stop-color="rgb(192,0,0)" offset="50%"/>
   <stop stop-color="rgb(127,0,0)" offset="70%"/>
   <stop stop-color="rgb(64,0,0)" offset="85%"/>
   <stop stop-color="rgb(0,0,0)" offset="100%"/>
 </radialGradient>
</defs>



<g id="manda" >

<use xlink:href="#Circ1" /> 
<use xlink:href="#Circ24"/> 
<use xlink:href="#Circ24B" /> 

<use xlink:href="#Zvire"/> 
<use xlink:href="#ZvireB" /> 


<use xlink:href="#bt"  /> 
<use xlink:href="#bt" transform = "rotate(30 250 250)" />
<use xlink:href="#bt" transform = "rotate(60 250 250)" /> 
<use xlink:href="#bt" transform = "rotate(90 250 250)" /> 
<use xlink:href="#bt" transform = "rotate(120 250 250)" /> 
<use xlink:href="#bt" transform = "rotate(150 250 250)" /> 
<use xlink:href="#bt" transform = "rotate(180 250 250)" /> 
<use xlink:href="#bt" transform = "rotate(210 250 250)" /> 
<use xlink:href="#bt" transform = "rotate(240 250 250)" /> 
<use xlink:href="#bt" transform = "rotate(270 250 250)" /> 
<use xlink:href="#bt" transform = "rotate(300 250 250)" /> 
<use xlink:href="#bt" transform = "rotate(330 250 250)" /> 


     <g fill="none" stroke="silver" stroke-width="1">
         <line x1="70"  y1="250"   x2="430"   y2="250" />
         <line x1="250" y1="70"    x2="250"   y2="430" />
         
         <line x1="70" y1="250"   x2="430"   y2="250" transform = "rotate(30 250 250)"/>
         <line x1="70" y1="250"   x2="430"   y2="250" transform = "rotate(-30 250 250)"/>
         <line x1="70" y1="250"   x2="430"   y2="250" transform = "rotate(60 250 250)"/>
         <line x1="70" y1="250"   x2="430"   y2="250" transform = "rotate(-60 250 250)"/>

     </g>

     <g fill="red" stroke="black" stroke-width="8">
       
       <line x1="0" y1="0"   x2="500"   y2="0" />
       <line x1="0" y1="0"   x2="0"   y2="500" />
       <line x1="500" y1="0"   x2="500"   y2="500" />
       <line x1="0" y1="500"   x2="500"   y2="500" />
     </g>
  
</g>

<!-- use xlink:href="#levelCirc"  
	fill="url(#gradient_3D_red)" / --> 

</svg>